<svg version="1.1" id="Layer_1" xmlns="http://www.w3.org/2000/svg" xmlns:xlink="http://www.w3.org/1999/xlink" x="0px" y="0px"
	 width="100%" viewBox="0 0 512 512" enable-background="new 0 0 512 512" xml:space="preserve">
<path fill="#6A3CFF" opacity="1.000000" stroke="none" 
	d="
M327.000000,513.000000 
	C218.026474,513.000000 109.552940,513.000000 1.039705,513.000000 
	C1.039705,342.401459 1.039705,171.802887 1.039705,1.102159 
	C171.556870,1.102159 342.113831,1.102159 512.835388,1.102159 
	C512.835388,171.666534 512.835388,342.333252 512.835388,513.000000 
	C451.136200,513.000000 389.318085,513.000000 327.000000,513.000000 
M212.118576,208.600433 
	C252.249710,173.679306 311.257202,193.470428 322.122528,245.396149 
	C332.586273,295.402893 343.294281,345.358521 353.733154,395.370361 
	C354.442505,398.768799 355.803680,399.598755 359.001099,399.578217 
	C377.665649,399.458191 396.331329,399.527252 414.996613,399.498962 
	C416.255798,399.497040 417.514557,399.220276 418.716370,399.078094 
	C418.716370,329.774567 418.716370,260.849945 418.716370,191.321320 
	C406.031586,191.321320 393.617523,191.321320 380.933319,191.321320 
	C380.933319,178.319702 380.933319,165.922729 380.933319,152.866043 
	C393.735779,152.866043 406.280182,152.866043 418.689667,152.866043 
	C418.689667,139.782379 418.689667,127.360229 418.689667,114.897491 
	C310.672974,114.897491 202.969894,114.897491 95.292686,114.897491 
	C95.292686,127.744614 95.292686,140.171661 95.292686,153.078979 
	C107.999115,153.078979 120.418777,153.078979 133.026245,153.078979 
	C133.026245,165.965332 133.026245,178.365311 133.026245,191.354797 
	C120.320930,191.354797 107.907097,191.354797 95.319725,191.354797 
	C95.319725,260.986359 95.319725,330.026367 95.319725,399.063751 
	C96.103340,399.249023 96.580681,399.459961 97.058357,399.460693 
	C116.723320,399.490570 136.388733,399.440002 156.052887,399.575592 
	C159.323639,399.598145 159.705261,397.825989 160.233200,395.315399 
	C170.746811,345.318787 181.403137,295.352142 191.868774,245.345535 
	C194.827560,231.207977 201.217484,219.103882 212.118576,208.600433 
z"/>
<path fill="#FEFEFF" opacity="1.000000" stroke="none" 
	d="
M211.858307,208.844040 
	C201.217484,219.103882 194.827560,231.207977 191.868774,245.345535 
	C181.403137,295.352142 170.746811,345.318787 160.233200,395.315399 
	C159.705261,397.825989 159.323639,399.598145 156.052887,399.575592 
	C136.388733,399.440002 116.723320,399.490570 97.058357,399.460693 
	C96.580681,399.459961 96.103340,399.249023 95.319725,399.063751 
	C95.319725,330.026367 95.319725,260.986359 95.319725,191.354797 
	C107.907097,191.354797 120.320930,191.354797 133.026245,191.354797 
	C133.026245,178.365311 133.026245,165.965332 133.026245,153.078979 
	C120.418777,153.078979 107.999115,153.078979 95.292686,153.078979 
	C95.292686,140.171661 95.292686,127.744614 95.292686,114.897491 
	C202.969894,114.897491 310.672974,114.897491 418.689667,114.897491 
	C418.689667,127.360229 418.689667,139.782379 418.689667,152.866043 
	C406.280182,152.866043 393.735779,152.866043 380.933319,152.866043 
	C380.933319,165.922729 380.933319,178.319702 380.933319,191.321320 
	C393.617523,191.321320 406.031586,191.321320 418.716370,191.321320 
	C418.716370,260.849945 418.716370,329.774567 418.716370,399.078094 
	C417.514557,399.220276 416.255798,399.497040 414.996613,399.498962 
	C396.331329,399.527252 377.665649,399.458191 359.001099,399.578217 
	C355.803680,399.598755 354.442505,398.768799 353.733154,395.370361 
	C343.294281,345.358521 332.586273,295.402893 322.122528,245.396149 
	C311.257202,193.470428 252.249710,173.679306 211.858307,208.844040 
z"/>
</svg>